<mxfile host="app.diagrams.net" modified="2024-02-07T12:56:30.213Z" agent="Mozilla/5.0 (Windows NT 10.0; Win64; x64) AppleWebKit/537.36 (KHTML, like Gecko) Chrome/120.0.0.0 Safari/537.36 OPR/106.0.0.0" etag="QtHfAHJb_6Zt3E4uY8pw" version="23.1.1" type="github">
  <diagram name="Page-1" id="jtEGU4w5EN0m42as8MH0">
    <mxGraphModel dx="2532" dy="955" grid="1" gridSize="10" guides="1" tooltips="1" connect="1" arrows="1" fold="1" page="1" pageScale="1" pageWidth="850" pageHeight="1100" math="0" shadow="0">
      <root>
        <mxCell id="0" />
        <mxCell id="1" parent="0" />
        <mxCell id="73xzhFmGHyd9fNAaFiC_-1" value="" style="ellipse;whiteSpace=wrap;html=1;aspect=fixed;" parent="1" vertex="1">
          <mxGeometry x="400" y="40" width="80" height="80" as="geometry" />
        </mxCell>
        <mxCell id="73xzhFmGHyd9fNAaFiC_-2" value="" style="ellipse;whiteSpace=wrap;html=1;aspect=fixed;" parent="1" vertex="1">
          <mxGeometry x="200" y="40" width="80" height="80" as="geometry" />
        </mxCell>
        <mxCell id="73xzhFmGHyd9fNAaFiC_-3" value="" style="endArrow=classic;html=1;rounded=0;entryX=0;entryY=0.5;entryDx=0;entryDy=0;exitX=1;exitY=0.5;exitDx=0;exitDy=0;" parent="1" source="73xzhFmGHyd9fNAaFiC_-13" edge="1">
          <mxGeometry width="50" height="50" relative="1" as="geometry">
            <mxPoint x="120" y="80" as="sourcePoint" />
            <mxPoint x="200" y="80" as="targetPoint" />
          </mxGeometry>
        </mxCell>
        <mxCell id="73xzhFmGHyd9fNAaFiC_-4" value="" style="endArrow=classic;html=1;rounded=0;entryX=0;entryY=0.5;entryDx=0;entryDy=0;exitX=1;exitY=0.5;exitDx=0;exitDy=0;" parent="1" source="73xzhFmGHyd9fNAaFiC_-2" target="73xzhFmGHyd9fNAaFiC_-1" edge="1">
          <mxGeometry width="50" height="50" relative="1" as="geometry">
            <mxPoint x="290" y="110" as="sourcePoint" />
            <mxPoint x="410" y="110" as="targetPoint" />
          </mxGeometry>
        </mxCell>
        <mxCell id="73xzhFmGHyd9fNAaFiC_-5" value="&lt;b style=&quot;font-size: 15px;&quot;&gt;S29&lt;/b&gt;" style="text;html=1;strokeColor=none;fillColor=none;align=center;verticalAlign=middle;whiteSpace=wrap;rounded=0;fontSize=15;" parent="1" vertex="1">
          <mxGeometry x="210" y="65" width="60" height="30" as="geometry" />
        </mxCell>
        <mxCell id="73xzhFmGHyd9fNAaFiC_-6" value="&lt;b&gt;&lt;font style=&quot;font-size: 15px;&quot;&gt;S30&lt;/font&gt;&lt;/b&gt;" style="text;html=1;strokeColor=none;fillColor=none;align=center;verticalAlign=middle;whiteSpace=wrap;rounded=0;" parent="1" vertex="1">
          <mxGeometry x="410" y="65" width="60" height="30" as="geometry" />
        </mxCell>
        <mxCell id="73xzhFmGHyd9fNAaFiC_-7" value="S" style="text;html=1;strokeColor=none;fillColor=none;align=center;verticalAlign=middle;whiteSpace=wrap;rounded=0;fontSize=15;" parent="1" vertex="1">
          <mxGeometry x="286" y="47.5" width="105" height="30" as="geometry" />
        </mxCell>
        <mxCell id="73xzhFmGHyd9fNAaFiC_-8" value="" style="ellipse;whiteSpace=wrap;html=1;aspect=fixed;" parent="1" vertex="1">
          <mxGeometry x="600" y="40" width="80" height="80" as="geometry" />
        </mxCell>
        <mxCell id="73xzhFmGHyd9fNAaFiC_-9" value="" style="ellipse;whiteSpace=wrap;html=1;aspect=fixed;" parent="1" vertex="1">
          <mxGeometry x="607.5" y="47.5" width="65" height="65" as="geometry" />
        </mxCell>
        <mxCell id="73xzhFmGHyd9fNAaFiC_-10" value="" style="endArrow=classic;html=1;rounded=0;entryX=0;entryY=0.5;entryDx=0;entryDy=0;exitX=1;exitY=0.5;exitDx=0;exitDy=0;" parent="1" target="73xzhFmGHyd9fNAaFiC_-8" edge="1">
          <mxGeometry width="50" height="50" relative="1" as="geometry">
            <mxPoint x="480" y="80" as="sourcePoint" />
            <mxPoint x="610" y="110" as="targetPoint" />
          </mxGeometry>
        </mxCell>
        <mxCell id="73xzhFmGHyd9fNAaFiC_-11" value="&lt;b&gt;&lt;font style=&quot;font-size: 15px;&quot;&gt;S31&lt;/font&gt;&lt;/b&gt;" style="text;html=1;strokeColor=none;fillColor=none;align=center;verticalAlign=middle;whiteSpace=wrap;rounded=0;" parent="1" vertex="1">
          <mxGeometry x="610" y="65" width="60" height="30" as="geometry" />
        </mxCell>
        <mxCell id="73xzhFmGHyd9fNAaFiC_-12" value="E" style="text;html=1;strokeColor=none;fillColor=none;align=center;verticalAlign=middle;whiteSpace=wrap;rounded=0;fontSize=15;" parent="1" vertex="1">
          <mxGeometry x="490" y="47.5" width="105" height="30" as="geometry" />
        </mxCell>
        <mxCell id="73xzhFmGHyd9fNAaFiC_-13" value="" style="ellipse;whiteSpace=wrap;html=1;aspect=fixed;" parent="1" vertex="1">
          <mxGeometry y="40" width="80" height="80" as="geometry" />
        </mxCell>
        <mxCell id="73xzhFmGHyd9fNAaFiC_-14" value="" style="endArrow=classic;html=1;rounded=0;entryX=0;entryY=0.5;entryDx=0;entryDy=0;" parent="1" edge="1">
          <mxGeometry width="50" height="50" relative="1" as="geometry">
            <mxPoint x="-120" y="80" as="sourcePoint" />
            <mxPoint y="80" as="targetPoint" />
          </mxGeometry>
        </mxCell>
        <mxCell id="73xzhFmGHyd9fNAaFiC_-15" value="&lt;b style=&quot;font-size: 15px;&quot;&gt;S28&lt;/b&gt;" style="text;html=1;strokeColor=none;fillColor=none;align=center;verticalAlign=middle;whiteSpace=wrap;rounded=0;fontSize=15;" parent="1" vertex="1">
          <mxGeometry x="10" y="65" width="60" height="30" as="geometry" />
        </mxCell>
        <mxCell id="73xzhFmGHyd9fNAaFiC_-16" value="L" style="text;html=1;strokeColor=none;fillColor=none;align=center;verticalAlign=middle;whiteSpace=wrap;rounded=0;fontSize=15;" parent="1" vertex="1">
          <mxGeometry x="80" y="47.5" width="105" height="30" as="geometry" />
        </mxCell>
        <mxCell id="73xzhFmGHyd9fNAaFiC_-17" value="" style="ellipse;whiteSpace=wrap;html=1;aspect=fixed;" parent="1" vertex="1">
          <mxGeometry x="200" y="160" width="80" height="80" as="geometry" />
        </mxCell>
        <mxCell id="73xzhFmGHyd9fNAaFiC_-18" value="" style="ellipse;whiteSpace=wrap;html=1;aspect=fixed;" parent="1" vertex="1">
          <mxGeometry y="160" width="80" height="80" as="geometry" />
        </mxCell>
        <mxCell id="73xzhFmGHyd9fNAaFiC_-19" value="" style="endArrow=classic;html=1;rounded=0;entryX=0;entryY=0.5;entryDx=0;entryDy=0;exitX=1;exitY=0.5;exitDx=0;exitDy=0;" parent="1" source="73xzhFmGHyd9fNAaFiC_-23" edge="1">
          <mxGeometry width="50" height="50" relative="1" as="geometry">
            <mxPoint x="-80" y="200" as="sourcePoint" />
            <mxPoint y="200" as="targetPoint" />
          </mxGeometry>
        </mxCell>
        <mxCell id="73xzhFmGHyd9fNAaFiC_-20" value="" style="endArrow=classic;html=1;rounded=0;entryX=0;entryY=0.5;entryDx=0;entryDy=0;exitX=1;exitY=0.5;exitDx=0;exitDy=0;" parent="1" source="73xzhFmGHyd9fNAaFiC_-18" target="73xzhFmGHyd9fNAaFiC_-17" edge="1">
          <mxGeometry width="50" height="50" relative="1" as="geometry">
            <mxPoint x="90" y="230" as="sourcePoint" />
            <mxPoint x="210" y="230" as="targetPoint" />
          </mxGeometry>
        </mxCell>
        <mxCell id="73xzhFmGHyd9fNAaFiC_-21" value="&lt;b style=&quot;font-size: 15px;&quot;&gt;S32&lt;/b&gt;" style="text;html=1;strokeColor=none;fillColor=none;align=center;verticalAlign=middle;whiteSpace=wrap;rounded=0;fontSize=15;" parent="1" vertex="1">
          <mxGeometry x="10" y="185" width="60" height="30" as="geometry" />
        </mxCell>
        <mxCell id="73xzhFmGHyd9fNAaFiC_-22" value="F" style="text;html=1;strokeColor=none;fillColor=none;align=center;verticalAlign=middle;whiteSpace=wrap;rounded=0;fontSize=15;" parent="1" vertex="1">
          <mxGeometry x="86" y="167.5" width="105" height="30" as="geometry" />
        </mxCell>
        <mxCell id="73xzhFmGHyd9fNAaFiC_-23" value="" style="ellipse;whiteSpace=wrap;html=1;aspect=fixed;" parent="1" vertex="1">
          <mxGeometry x="-200" y="160" width="80" height="80" as="geometry" />
        </mxCell>
        <mxCell id="73xzhFmGHyd9fNAaFiC_-24" value="" style="endArrow=classic;html=1;rounded=0;entryX=0;entryY=0.5;entryDx=0;entryDy=0;" parent="1" edge="1">
          <mxGeometry width="50" height="50" relative="1" as="geometry">
            <mxPoint x="-280" y="200" as="sourcePoint" />
            <mxPoint x="-200" y="200" as="targetPoint" />
          </mxGeometry>
        </mxCell>
        <mxCell id="73xzhFmGHyd9fNAaFiC_-25" value="&lt;b&gt;S0&lt;/b&gt;" style="text;html=1;strokeColor=none;fillColor=none;align=center;verticalAlign=middle;whiteSpace=wrap;rounded=0;fontSize=15;" parent="1" vertex="1">
          <mxGeometry x="-190" y="185" width="60" height="30" as="geometry" />
        </mxCell>
        <mxCell id="73xzhFmGHyd9fNAaFiC_-26" value="" style="ellipse;whiteSpace=wrap;html=1;aspect=fixed;" parent="1" vertex="1">
          <mxGeometry x="207.5" y="167.5" width="65" height="65" as="geometry" />
        </mxCell>
        <mxCell id="73xzhFmGHyd9fNAaFiC_-27" value="I" style="text;html=1;strokeColor=none;fillColor=none;align=center;verticalAlign=middle;whiteSpace=wrap;rounded=0;fontSize=15;" parent="1" vertex="1">
          <mxGeometry x="-120" y="167.5" width="105" height="30" as="geometry" />
        </mxCell>
        <mxCell id="73xzhFmGHyd9fNAaFiC_-28" value="&lt;b&gt;&lt;font style=&quot;font-size: 15px;&quot;&gt;S33&lt;/font&gt;&lt;/b&gt;" style="text;html=1;strokeColor=none;fillColor=none;align=center;verticalAlign=middle;whiteSpace=wrap;rounded=0;" parent="1" vertex="1">
          <mxGeometry x="210" y="185" width="60" height="30" as="geometry" />
        </mxCell>
        <mxCell id="73xzhFmGHyd9fNAaFiC_-57" value="" style="ellipse;whiteSpace=wrap;html=1;aspect=fixed;" parent="1" vertex="1">
          <mxGeometry x="-200" y="40" width="80" height="80" as="geometry" />
        </mxCell>
        <mxCell id="73xzhFmGHyd9fNAaFiC_-58" value="" style="endArrow=classic;html=1;rounded=0;entryX=0;entryY=0.5;entryDx=0;entryDy=0;" parent="1" edge="1">
          <mxGeometry width="50" height="50" relative="1" as="geometry">
            <mxPoint x="-280" y="80" as="sourcePoint" />
            <mxPoint x="-200" y="80" as="targetPoint" />
          </mxGeometry>
        </mxCell>
        <mxCell id="73xzhFmGHyd9fNAaFiC_-59" value="&lt;b style=&quot;font-size: 15px;&quot;&gt;S0&lt;/b&gt;" style="text;html=1;strokeColor=none;fillColor=none;align=center;verticalAlign=middle;whiteSpace=wrap;rounded=0;fontSize=15;" parent="1" vertex="1">
          <mxGeometry x="-190" y="65" width="60" height="30" as="geometry" />
        </mxCell>
        <mxCell id="73xzhFmGHyd9fNAaFiC_-60" value="E" style="text;html=1;strokeColor=none;fillColor=none;align=center;verticalAlign=middle;whiteSpace=wrap;rounded=0;fontSize=15;" parent="1" vertex="1">
          <mxGeometry x="-120" y="47.5" width="105" height="30" as="geometry" />
        </mxCell>
        <mxCell id="73xzhFmGHyd9fNAaFiC_-61" value="" style="ellipse;whiteSpace=wrap;html=1;aspect=fixed;" parent="1" vertex="1">
          <mxGeometry x="280" y="280" width="80" height="80" as="geometry" />
        </mxCell>
        <mxCell id="73xzhFmGHyd9fNAaFiC_-62" value="" style="ellipse;whiteSpace=wrap;html=1;aspect=fixed;" parent="1" vertex="1">
          <mxGeometry x="120" y="280" width="80" height="80" as="geometry" />
        </mxCell>
        <mxCell id="73xzhFmGHyd9fNAaFiC_-63" value="" style="endArrow=classic;html=1;rounded=0;entryX=0;entryY=0.5;entryDx=0;entryDy=0;exitX=1;exitY=0.5;exitDx=0;exitDy=0;" parent="1" source="73xzhFmGHyd9fNAaFiC_-73" edge="1">
          <mxGeometry width="50" height="50" relative="1" as="geometry">
            <mxPoint x="40" y="320" as="sourcePoint" />
            <mxPoint x="120" y="320" as="targetPoint" />
          </mxGeometry>
        </mxCell>
        <mxCell id="73xzhFmGHyd9fNAaFiC_-64" value="" style="endArrow=classic;html=1;rounded=0;entryX=0;entryY=0.5;entryDx=0;entryDy=0;exitX=1;exitY=0.5;exitDx=0;exitDy=0;" parent="1" source="73xzhFmGHyd9fNAaFiC_-62" target="73xzhFmGHyd9fNAaFiC_-61" edge="1">
          <mxGeometry width="50" height="50" relative="1" as="geometry">
            <mxPoint x="210" y="350" as="sourcePoint" />
            <mxPoint x="330" y="350" as="targetPoint" />
          </mxGeometry>
        </mxCell>
        <mxCell id="73xzhFmGHyd9fNAaFiC_-65" value="&lt;b style=&quot;font-size: 15px;&quot;&gt;S29&lt;/b&gt;" style="text;html=1;strokeColor=none;fillColor=none;align=center;verticalAlign=middle;whiteSpace=wrap;rounded=0;fontSize=15;" parent="1" vertex="1">
          <mxGeometry x="130" y="305" width="60" height="30" as="geometry" />
        </mxCell>
        <mxCell id="73xzhFmGHyd9fNAaFiC_-66" value="&lt;b&gt;&lt;font style=&quot;font-size: 15px;&quot;&gt;S30&lt;/font&gt;&lt;/b&gt;" style="text;html=1;strokeColor=none;fillColor=none;align=center;verticalAlign=middle;whiteSpace=wrap;rounded=0;" parent="1" vertex="1">
          <mxGeometry x="290" y="305" width="60" height="30" as="geometry" />
        </mxCell>
        <mxCell id="73xzhFmGHyd9fNAaFiC_-67" value="S" style="text;html=1;strokeColor=none;fillColor=none;align=center;verticalAlign=middle;whiteSpace=wrap;rounded=0;fontSize=15;" parent="1" vertex="1">
          <mxGeometry x="187.5" y="287.5" width="105" height="30" as="geometry" />
        </mxCell>
        <mxCell id="73xzhFmGHyd9fNAaFiC_-68" value="" style="ellipse;whiteSpace=wrap;html=1;aspect=fixed;" parent="1" vertex="1">
          <mxGeometry x="440" y="280" width="80" height="80" as="geometry" />
        </mxCell>
        <mxCell id="73xzhFmGHyd9fNAaFiC_-70" value="" style="endArrow=classic;html=1;rounded=0;entryX=0;entryY=0.5;entryDx=0;entryDy=0;exitX=1;exitY=0.5;exitDx=0;exitDy=0;" parent="1" target="73xzhFmGHyd9fNAaFiC_-68" edge="1">
          <mxGeometry width="50" height="50" relative="1" as="geometry">
            <mxPoint x="360" y="320" as="sourcePoint" />
            <mxPoint x="490" y="350" as="targetPoint" />
          </mxGeometry>
        </mxCell>
        <mxCell id="73xzhFmGHyd9fNAaFiC_-72" value="E" style="text;html=1;strokeColor=none;fillColor=none;align=center;verticalAlign=middle;whiteSpace=wrap;rounded=0;fontSize=15;" parent="1" vertex="1">
          <mxGeometry x="348" y="287.5" width="105" height="30" as="geometry" />
        </mxCell>
        <mxCell id="73xzhFmGHyd9fNAaFiC_-73" value="" style="ellipse;whiteSpace=wrap;html=1;aspect=fixed;" parent="1" vertex="1">
          <mxGeometry x="-40" y="280" width="80" height="80" as="geometry" />
        </mxCell>
        <mxCell id="73xzhFmGHyd9fNAaFiC_-74" value="" style="endArrow=classic;html=1;rounded=0;entryX=0;entryY=0.5;entryDx=0;entryDy=0;" parent="1" edge="1" target="73xzhFmGHyd9fNAaFiC_-73">
          <mxGeometry width="50" height="50" relative="1" as="geometry">
            <mxPoint x="-120" y="320" as="sourcePoint" />
            <mxPoint y="320" as="targetPoint" />
          </mxGeometry>
        </mxCell>
        <mxCell id="73xzhFmGHyd9fNAaFiC_-75" value="&lt;b style=&quot;font-size: 15px;&quot;&gt;S28&lt;/b&gt;" style="text;html=1;strokeColor=none;fillColor=none;align=center;verticalAlign=middle;whiteSpace=wrap;rounded=0;fontSize=15;" parent="1" vertex="1">
          <mxGeometry x="-30" y="305" width="60" height="30" as="geometry" />
        </mxCell>
        <mxCell id="73xzhFmGHyd9fNAaFiC_-76" value="L" style="text;html=1;strokeColor=none;fillColor=none;align=center;verticalAlign=middle;whiteSpace=wrap;rounded=0;fontSize=15;" parent="1" vertex="1">
          <mxGeometry x="28" y="287.5" width="105" height="30" as="geometry" />
        </mxCell>
        <mxCell id="73xzhFmGHyd9fNAaFiC_-77" value="" style="ellipse;whiteSpace=wrap;html=1;aspect=fixed;" parent="1" vertex="1">
          <mxGeometry x="-200" y="280" width="80" height="80" as="geometry" />
        </mxCell>
        <mxCell id="73xzhFmGHyd9fNAaFiC_-78" value="" style="endArrow=classic;html=1;rounded=0;entryX=0;entryY=0.5;entryDx=0;entryDy=0;" parent="1" edge="1">
          <mxGeometry width="50" height="50" relative="1" as="geometry">
            <mxPoint x="-280" y="320" as="sourcePoint" />
            <mxPoint x="-200" y="320" as="targetPoint" />
          </mxGeometry>
        </mxCell>
        <mxCell id="73xzhFmGHyd9fNAaFiC_-79" value="&lt;b style=&quot;font-size: 15px;&quot;&gt;S0&lt;/b&gt;" style="text;html=1;strokeColor=none;fillColor=none;align=center;verticalAlign=middle;whiteSpace=wrap;rounded=0;fontSize=15;" parent="1" vertex="1">
          <mxGeometry x="-190" y="305" width="60" height="30" as="geometry" />
        </mxCell>
        <mxCell id="73xzhFmGHyd9fNAaFiC_-80" value="E" style="text;html=1;strokeColor=none;fillColor=none;align=center;verticalAlign=middle;whiteSpace=wrap;rounded=0;fontSize=15;" parent="1" vertex="1">
          <mxGeometry x="-133" y="287.5" width="105" height="30" as="geometry" />
        </mxCell>
        <mxCell id="73xzhFmGHyd9fNAaFiC_-81" value="" style="ellipse;whiteSpace=wrap;html=1;aspect=fixed;" parent="1" vertex="1">
          <mxGeometry x="954" y="280" width="80" height="80" as="geometry" />
        </mxCell>
        <mxCell id="73xzhFmGHyd9fNAaFiC_-82" value="" style="ellipse;whiteSpace=wrap;html=1;aspect=fixed;" parent="1" vertex="1">
          <mxGeometry x="800" y="280" width="80" height="80" as="geometry" />
        </mxCell>
        <mxCell id="73xzhFmGHyd9fNAaFiC_-83" value="" style="endArrow=classic;html=1;rounded=0;exitX=1;exitY=0.5;exitDx=0;exitDy=0;" parent="1" source="73xzhFmGHyd9fNAaFiC_-87" edge="1">
          <mxGeometry width="50" height="50" relative="1" as="geometry">
            <mxPoint x="840" y="320" as="sourcePoint" />
            <mxPoint x="800" y="320" as="targetPoint" />
          </mxGeometry>
        </mxCell>
        <mxCell id="73xzhFmGHyd9fNAaFiC_-84" value="" style="endArrow=classic;html=1;rounded=0;entryX=0;entryY=0.5;entryDx=0;entryDy=0;exitX=1;exitY=0.5;exitDx=0;exitDy=0;" parent="1" source="73xzhFmGHyd9fNAaFiC_-82" target="73xzhFmGHyd9fNAaFiC_-81" edge="1">
          <mxGeometry width="50" height="50" relative="1" as="geometry">
            <mxPoint x="1010" y="350" as="sourcePoint" />
            <mxPoint x="1130" y="350" as="targetPoint" />
          </mxGeometry>
        </mxCell>
        <mxCell id="73xzhFmGHyd9fNAaFiC_-85" value="&lt;b style=&quot;font-size: 15px;&quot;&gt;S35&lt;/b&gt;" style="text;html=1;strokeColor=none;fillColor=none;align=center;verticalAlign=middle;whiteSpace=wrap;rounded=0;fontSize=15;" parent="1" vertex="1">
          <mxGeometry x="810" y="305" width="60" height="30" as="geometry" />
        </mxCell>
        <mxCell id="73xzhFmGHyd9fNAaFiC_-86" value="F" style="text;html=1;strokeColor=none;fillColor=none;align=center;verticalAlign=middle;whiteSpace=wrap;rounded=0;fontSize=15;" parent="1" vertex="1">
          <mxGeometry x="867" y="287.5" width="105" height="30" as="geometry" />
        </mxCell>
        <mxCell id="73xzhFmGHyd9fNAaFiC_-87" value="" style="ellipse;whiteSpace=wrap;html=1;aspect=fixed;" parent="1" vertex="1">
          <mxGeometry x="640" y="280" width="80" height="80" as="geometry" />
        </mxCell>
        <mxCell id="73xzhFmGHyd9fNAaFiC_-88" value="" style="endArrow=classic;html=1;rounded=0;exitX=1;exitY=0.5;exitDx=0;exitDy=0;" parent="1" source="73xzhFmGHyd9fNAaFiC_-68" edge="1">
          <mxGeometry width="50" height="50" relative="1" as="geometry">
            <mxPoint x="640" y="320" as="sourcePoint" />
            <mxPoint x="640" y="320" as="targetPoint" />
          </mxGeometry>
        </mxCell>
        <mxCell id="73xzhFmGHyd9fNAaFiC_-89" value="&lt;b&gt;S34&lt;/b&gt;" style="text;html=1;strokeColor=none;fillColor=none;align=center;verticalAlign=middle;whiteSpace=wrap;rounded=0;fontSize=15;" parent="1" vertex="1">
          <mxGeometry x="650" y="305" width="60" height="30" as="geometry" />
        </mxCell>
        <mxCell id="73xzhFmGHyd9fNAaFiC_-90" value="" style="ellipse;whiteSpace=wrap;html=1;aspect=fixed;" parent="1" vertex="1">
          <mxGeometry x="961.5" y="287.5" width="65" height="65" as="geometry" />
        </mxCell>
        <mxCell id="73xzhFmGHyd9fNAaFiC_-91" value="I" style="text;html=1;strokeColor=none;fillColor=none;align=center;verticalAlign=middle;whiteSpace=wrap;rounded=0;fontSize=15;" parent="1" vertex="1">
          <mxGeometry x="707" y="287.5" width="105" height="30" as="geometry" />
        </mxCell>
        <mxCell id="73xzhFmGHyd9fNAaFiC_-92" value="&lt;b&gt;&lt;font style=&quot;font-size: 15px;&quot;&gt;S36&lt;/font&gt;&lt;/b&gt;" style="text;html=1;strokeColor=none;fillColor=none;align=center;verticalAlign=middle;whiteSpace=wrap;rounded=0;" parent="1" vertex="1">
          <mxGeometry x="964" y="305" width="60" height="30" as="geometry" />
        </mxCell>
        <mxCell id="73xzhFmGHyd9fNAaFiC_-93" value="&amp;lt;space&amp;gt;" style="text;html=1;strokeColor=none;fillColor=none;align=center;verticalAlign=middle;whiteSpace=wrap;rounded=0;fontSize=15;" parent="1" vertex="1">
          <mxGeometry x="530" y="287.5" width="105" height="30" as="geometry" />
        </mxCell>
        <mxCell id="73xzhFmGHyd9fNAaFiC_-94" value="" style="ellipse;whiteSpace=wrap;html=1;aspect=fixed;" parent="1" vertex="1">
          <mxGeometry x="447.5" y="287.5" width="65" height="65" as="geometry" />
        </mxCell>
        <mxCell id="73xzhFmGHyd9fNAaFiC_-71" value="&lt;b&gt;&lt;font style=&quot;font-size: 15px;&quot;&gt;S31&lt;/font&gt;&lt;/b&gt;" style="text;html=1;strokeColor=none;fillColor=none;align=center;verticalAlign=middle;whiteSpace=wrap;rounded=0;" parent="1" vertex="1">
          <mxGeometry x="450" y="305" width="60" height="30" as="geometry" />
        </mxCell>
      </root>
    </mxGraphModel>
  </diagram>
</mxfile>
